<?xml version="1.0" standalone="no"?>
<!DOCTYPE svg PUBLIC "-//W3C//DTD SVG 20010904//EN"
 "http://www.w3.org/TR/2001/REC-SVG-20010904/DTD/svg10.dtd">
<svg version="1.0" xmlns="http://www.w3.org/2000/svg"
 width="512.000000pt" height="624.000000pt" viewBox="0 0 512.000000 624.000000"
 preserveAspectRatio="xMidYMid meet">
<metadata>
Created by potrace 1.16, written by Peter Selinger 2001-2019
</metadata>
<g transform="translate(0.000000,624.000000) scale(0.100000,-0.100000)"
fill="#000000" stroke="none">
<path d="M515 6216 c-253 -59 -443 -242 -490 -474 -11 -55 -14 -515 -16 -2672
l-3 -2605 27 -68 c35 -90 86 -164 156 -230 73 -67 126 -98 227 -134 l79 -28
2065 0 2065 0 80 27 c100 34 187 91 258 168 64 69 130 193 147 276 9 44 11
670 7 2638 -4 2350 -6 2587 -21 2645 -43 167 -170 323 -326 400 -180 88 -295
90 -608 12 -518 -129 -987 -207 -1393 -231 -449 -27 -1049 49 -1794 227 -255
61 -360 72 -460 49z"/>
</g>
</svg>
